# xmcd
#
# Track frame offsets: 
#        150
#        9053
#        24554
#        46382
#        62138
#        74603
#        84622
#        103752
#        131440
#        152876
#        173155
#        186410
#        200116
#
# Disc length: 2871 seconds
#
# Revision: 0
# Processed by: cddbd v1.5.2PL0 Copyright (c) Steve Scherf et al.
# Submitted via: ExactAudioCopy v0.99pb4
#
DISCID=b50b350d
DTITLE=Old and In The Way - Live at the Boarding House [CD1]
DYEAR=1973
DGENRE=Bluegrass
TTITLE0=Home Is Where The Heart Is
TTITLE1=Love Please Come Home
TTITLE2=Down Where The River Bends
TTITLE3=Kissimee Kid
TTITLE4=Pig in a Pen
TTITLE5=Uncle Pen
TTITLE6=Panama Red
TTITLE7=Midnight Moonlight
TTITLE8=White Dove
TTITLE9=Wild Horses
TTITLE10=Orange Blossom Special
TTITLE11=Old and in the Way
TTITLE12=Lonesome Fiddle Blues
EXTD=
EXTT0=
EXTT1=
EXTT2=
EXTT3=
EXTT4=
EXTT5=
EXTT6=
EXTT7=
EXTT8=
EXTT9=
EXTT10=
EXTT11=
EXTT12=
PLAYORDER=
